<?xml version="1.0" encoding="UTF-8" standalone="no"?>
<!-- Created with Inkscape (http://www.inkscape.org/) -->

<svg
   xmlns:dc="http://purl.org/dc/elements/1.1/"
   xmlns:cc="http://creativecommons.org/ns#"
   xmlns:rdf="http://www.w3.org/1999/02/22-rdf-syntax-ns#"
   xmlns:svg="http://www.w3.org/2000/svg"
   xmlns="http://www.w3.org/2000/svg"
   xmlns:sodipodi="http://sodipodi.sourceforge.net/DTD/sodipodi-0.dtd"
   xmlns:inkscape="http://www.inkscape.org/namespaces/inkscape"
   width="39.695621mm"
   height="41.109501mm"
   viewBox="0 0 39.695621 41.109501"
   version="1.1"
   id="svg8"
   inkscape:version="0.92.1 r15371"
   sodipodi:docname="menu-icon.svg">
  <defs
     id="defs2" />
  <sodipodi:namedview
     id="base"
     pagecolor="#ffffff"
     bordercolor="#666666"
     borderopacity="1.0"
     inkscape:pageopacity="0.0"
     inkscape:pageshadow="2"
     inkscape:zoom="0.35"
     inkscape:cx="-12.489527"
     inkscape:cy="-293.73304"
     inkscape:document-units="mm"
     inkscape:current-layer="layer1"
     showgrid="false"
     fit-margin-top="0"
     fit-margin-left="0"
     fit-margin-right="0"
     fit-margin-bottom="0"
     inkscape:window-width="1920"
     inkscape:window-height="1017"
     inkscape:window-x="-8"
     inkscape:window-y="-8"
     inkscape:window-maximized="1" />
  <metadata
     id="metadata5">
    <rdf:RDF>
      <cc:Work
         rdf:about="">
        <dc:format>image/svg+xml</dc:format>
        <dc:type
           rdf:resource="http://purl.org/dc/dcmitype/StillImage" />
        <dc:title></dc:title>
      </cc:Work>
    </rdf:RDF>
  </metadata>
  <g
     inkscape:label="Layer 1"
     inkscape:groupmode="layer"
     id="layer1"
     transform="translate(-109.13785,-30.006965)">
    <path
       style="fill:#000000;stroke-width:2.22109008"
       d="m 115.02889,70.096876 c 6.01955,-0.555143 15.41679,-0.550559 20.88276,0.0102 5.46598,0.560736 0.54089,1.014943 -10.94463,1.009338 -11.48552,-0.0056 -15.95767,-0.4644 -9.93813,-1.019543 z m -4.46477,-19.802584 c 3.56392,-0.609139 9.82875,-0.617564 13.92185,-0.01871 4.09308,0.598831 1.17715,1.097218 -6.47987,1.107515 -7.65702,0.0103 -11.0059,-0.479666 -7.44198,-1.088805 z m 6.92429,-19.887862 c 7.37229,-0.530058 19.90195,-0.532993 27.84368,-0.0065 7.94174,0.52647 1.90988,0.960153 -13.40415,0.963741 -15.31403,0.0036 -21.81181,-0.42716 -14.43953,-0.957217 z"
       id="path21"
       inkscape:connector-curvature="0" />
  </g>
</svg>
